PathFileType	4	(X/Y/Z)	D:\TRACE\v60_Jaco2_6-2-23\JustArmDRS_Motion3_2-v60.trc
DataRate	CameraRate	NumFrames	NumMarkers	Units	OrigDataRate	OrigDataStartFrame	OrigNumFrames
100.00	100.00	      14	9	mm	100.00	4376	      7000
Frame#	Time	front left toe			Front right toe			aft left toe			aft right toe			Arm			FL body			FR body			AL Body			AR Body			
		X1	Y1	Z1	X2	Y2	Z2	X3	Y3	Z3	X4	Y4	Z4	X5	Y5	Z5	X6	Y6	Z6	X7	Y7	Z7	X8	Y8	Z8	X9	Y9	Z9	

4376	43.750	-159.85092	27.69839	-228.61221	239.17094	25.18177	-163.67088	-248.52975	5.55089	407.68680	160.57193	3.14411	422.24957	67.96059	1075.49109	-660.23193	-27.80303	585.88934	-327.51172	129.42719	584.19055	-307.24048	-137.75204	578.53870	610.79895	13.87895	567.56750	628.81268	
4377	43.760	-159.67818	27.66393	-228.56638	239.31511	25.19106	-163.74689	-248.26881	5.54821	407.73203	160.74435	3.12036	422.16861	67.88318	1075.30212	-660.67670	-27.68460	585.87170	-327.53574	129.53711	584.22241	-307.32565	-137.62976	578.64154	610.86646	14.13956	567.59192	628.87048	
4378	43.770	-159.38493	27.60921	-228.58937	239.34869	25.18899	-163.77779	-247.88947	5.55554	407.76651	161.03726	3.25685	422.15524	67.96237	1075.10950	-661.12158	-27.45350	585.83954	-327.60632	129.67297	584.21704	-307.41058	-137.46532	578.63171	610.79572	14.59046	567.60303	628.81903	
4379	43.780	-159.05292	27.55229	-228.59166	239.50615	25.23274	-163.73456	-247.63019	5.60174	407.87399	161.21788	3.19653	422.07724	68.14559	1074.87195	-661.43915	-27.23757	585.83447	-327.66348	129.93172	584.16241	-307.42273	-137.22495	578.66608	610.72064	14.89958	567.67230	628.78552	
4380	43.790	-158.88472	27.54396	-228.63742	239.76988	25.20831	-163.77501	-247.44739	5.67111	407.94049	161.37177	3.14932	422.05200	68.41927	1074.60449	-661.79803	-26.79836	585.77289	-327.44278	130.18346	584.26062	-307.51862	-136.83499	578.64990	610.65186	15.19694	567.77222	628.76453	
4381	43.800	-158.72249	27.61653	-228.65871	239.94704	25.17022	-163.90300	-246.29651	5.41090	407.89340	161.58356	3.10754	422.00525	68.51282	1074.47192	-661.98560	-26.58912	585.86096	-327.46286	130.75322	584.31281	-307.71210	-136.46703	578.62866	610.64301	15.43251	567.84534	628.71082	
4382	43.810	-158.55635	27.60340	-228.61670	240.12637	25.11952	-163.94252	-247.13644	5.85961	408.02316	161.84525	3.05301	421.95538	68.62523	1074.29407	-662.14575	-26.27022	585.74872	-327.44626	131.05646	584.29120	-307.85794	-136.10551	578.49835	610.60913	15.70081	567.51764	628.36859	
4383	43.820	-158.42386	27.57797	-228.64444	240.27493	25.07275	-164.00720	-246.92548	5.95344	408.03885	162.16614	3.11754	421.95129	68.73519	1074.22986	-662.23499	-26.04690	585.72821	-327.44443	131.24582	584.29968	-307.93533	-135.98187	578.46118	610.57581	15.93256	567.53833	628.14795	
4384	43.830	-158.27203	27.56042	-228.67757	240.45802	25.00380	-164.12404	-246.77184	6.05903	407.95963	162.48221	3.18728	421.97391	68.97195	1074.14258	-662.25604	-25.82686	585.72498	-327.46558	130.90724	584.37030	-307.83768	-135.88313	578.39758	610.49066	16.06060	567.78644	628.29590	
4385	43.840	-158.09549	27.53760	-228.69272	240.88188	25.12180	-164.01347	-246.60229	6.09190	407.90787	162.73167	3.20679	421.97824	69.22256	1074.11426	-662.33203	-26.01259	586.11414	-327.99847	131.13947	584.33264	-307.88699	-135.82809	578.38245	610.45776	16.16984	567.75751	628.20490	
4386	43.850	-157.85367	27.51011	-228.66487	240.98210	25.12239	-164.11806	-246.45825	6.09607	407.87961	162.92232	3.19782	421.95560	69.38612	1074.12036	-662.29285	-25.79231	586.16626	-328.03799	131.37747	584.38831	-307.92206	-135.76649	578.39398	610.40497	16.39550	567.66650	628.16675	
4387	43.860	-157.55048	27.48265	-228.65115	241.15930	25.10166	-164.11809	-246.33626	6.07709	407.84216	163.11073	3.21149	421.96829	69.70959	1074.13770	-662.22998	-25.54491	586.19800	-328.02222	131.70370	584.51025	-307.98306	-135.62766	578.30884	610.32550	16.72349	567.53693	628.16077	
4388	43.870	-157.28835	27.46585	-228.69835	241.45787	25.10457	-164.13910	-246.18846	6.05034	407.79700	163.18449	3.13921	421.92038	69.88332	1074.19482	-662.12091	-25.24579	586.21814	-327.99701	132.09097	584.50006	-307.96375	-135.47679	578.19617	610.29248	16.95403	567.38800	628.17035	
4389	43.880	-157.14632	27.45502	-228.71425	241.54514	24.95478	-164.24315	-246.24797	6.16565	407.86462	163.36731	3.16193	421.96487	69.91603	1074.28259	-662.03009	-24.96272	586.18573	-327.99551	132.26450	584.64740	-308.08112	-135.17911	578.00403	610.26154	17.15222	567.23480	628.13110	
